# xmcd
#
# Track frame offsets: 
#        150
#        11703
#        22922
#        36357
#        49027
#        61165
#        73110
#        85428
#        98075
#        110372
#        121926
#        133204
#        145277
#        156287
#        167373
#        178782
#        190449
#        201929
#        214641
#        225393
#        236826
#        247621
#        258875
#        270477
#
# Disc length: 3744 seconds
#
# Revision: 0
# Processed by: cddbd v1.5.2PL0 Copyright (c) Steve Scherf et al.
# Submitted via: ExactAudioCopy v0.99pb1
#
DISCID=4b0e9e18
DTITLE=Robert Johnson - Legendary Blues Volume Two
DYEAR=1936
DGENRE=Blues
TTITLE0=Kind Hearted Woman Blues (Take 2)
TTITLE1=Ramblin' On My Mind (Take 2)
TTITLE2=When You Got A Good Friend (Take 2)
TTITLE3=Come On In My Kitchen (Take 2)
TTITLE4=Phonograph Blues (Take 2)
TTITLE5=Dead Shrimp Blues
TTITLE6=Cross Road Blues
TTITLE7=Last Fair Deal Gone Down
TTITLE8=If I Had Possession Over Judgement Day
TTITLE9=Stones In My Passway
TTITLE10=From Four Until Late
TTITLE11=Hell Hound On My Trail
TTITLE12=Little Queen Of Spades (Take 2)
TTITLE13=Malted Milk
TTITLE14=Drunken Hearted Man
TTITLE15=Me And The Devil Blues (Take 2)
TTITLE16=Stop Breakin' Down Blues (Take 2)
TTITLE17=Traveling Riverside Blues (Take 2)
TTITLE18=Honeymoon Blues
TTITLE19=Love In Vain Blues
TTITLE20=Milkcow's Calf Blues (Take 2)
TTITLE21=Cross Road Blues (Take 2)
TTITLE22=Drunken Hearted Man (Take 2)
TTITLE23=Love In Vain Blues (Take 2)
EXTD=
EXTT0=
EXTT1=
EXTT2=
EXTT3=
EXTT4=
EXTT5=
EXTT6=
EXTT7=
EXTT8=
EXTT9=
EXTT10=
EXTT11=
EXTT12=
EXTT13=
EXTT14=
EXTT15=
EXTT16=
EXTT17=
EXTT18=
EXTT19=
EXTT20=
EXTT21=
EXTT22=
EXTT23=
PLAYORDER=
